# xmcd
#
# Track frame offsets:
#	150
#	12970
#	27040
#	40870
#	54091
#	67242
#	79375
#	94122
#	106478
#	118809
#	130732
#	143051
#	155867
#	169934
#	181937
#	195844
#	209316
#	224229
#	237290
#	251817
#	265804
#	280322
#	294476
#	306524
#
# Disc length: 4246 seconds
#
# Revision: 1
# Processed by: cddbd v1.5.2PL0 Copyright (c) Steve Scherf et al.
# Submitted via: EasyCDDAExtractor 16.0.1.1
#
DISCID=6d109418
DTITLE=John Lee Hooker - House Rent Boogie
DYEAR=1900
DGENRE=Blues
TTITLE0=House Rent Boogie (alt tke)
TTITLE1=Sally Mae (1948)
TTITLE2=Nobody To Talk To Me (aka Mean Old Train) (1973)
TTITLE3=Numbers Blues (alt tke)
TTITLE4=Build Myself A Cave (alt tke)
TTITLE5=Roll n' Roll (1950)
TTITLE6=Anybody Seen My Baby (1951)
TTITLE7=How Can You Do It (1951)
TTITLE8=Key To The Highway (alt version)
TTITLE9=I Got Eyes For You (1952)
TTITLE10=Blue Bird Blues (1952)
TTITLE11=I Got Eyes For You (alt tke 2)
TTITLE12=I'm In The Mood
TTITLE13=Love Money Can't Buy (1953)
TTITLE14=It's Stormin' and Rainin' (1953)
TTITLE15=Let's Talk It Over (1954)
TTITLE16=It's Been A Long Time Baby (1953)
TTITLE17=I Tried Hard (1954)
TTITLE18=You Receive Me (1955)
TTITLE19=Taxi Driver (1955)
TTITLE20=Baby You Ain't No Good (1962)
TTITLE21=Half A Stranger (1955)
TTITLE22=Hug and Squeeze (1955)
TTITLE23=I'm Ready (1955)
EXTD=
EXTT0=
EXTT1=
EXTT2=
EXTT3=
EXTT4=
EXTT5=
EXTT6=
EXTT7=
EXTT8=
EXTT9=
EXTT10=
EXTT11=
EXTT12=
EXTT13=
EXTT14=
EXTT15=
EXTT16=
EXTT17=
EXTT18=
EXTT19=
EXTT20=
EXTT21=
EXTT22=
EXTT23=
PLAYORDER=
